<?xml version="1.0" encoding="UTF-8" standalone="no"?><!DOCTYPE svg PUBLIC "-//W3C//DTD SVG 1.1//EN" "http://www.w3.org/Graphics/SVG/1.1/DTD/svg11.dtd"><svg width="100%" height="100%" viewBox="0 0 3125 1667" version="1.1" xmlns="http://www.w3.org/2000/svg" xmlns:xlink="http://www.w3.org/1999/xlink" xml:space="preserve" xmlns:serif="http://www.serif.com/" style="fill-rule:evenodd;clip-rule:evenodd;stroke-linecap:round;stroke-linejoin:round;stroke-miterlimit:1.5;"><g id="LOGO"><g id="Schrift"><path d="M1064.39,517.497l-0.294,263.353c10.293,54.955 54.109,76.134 124.665,70.373" style="fill:none;stroke:#286b6c;stroke-width:41.67px;"/><path d="M1281.63,487.994l1.445,364.144m-1.445,-167.32c82.449,-112.866 195.904,-78.202 207.371,33.773l-1.276,133.547" style="fill:none;stroke:#286b6c;stroke-width:41.67px;"/><path d="M2582.88,494.93l-46.436,1.293c-44.84,8.23 -69.913,38.551 -66.879,84.64l-4.998,271.275m-57.338,-230.813l145.422,0.026" style="fill:none;stroke:#286b6c;stroke-width:41.67px;"/><path d="M2671.93,615.466l0.022,236.672" style="fill:none;stroke:#286b6c;stroke-width:41.67px;"/><path d="M2671.24,488.005c18.053,-0.435 33.029,12.453 33.422,28.762c0.393,16.31 -13.945,29.904 -31.998,30.339c-18.053,0.435 -33.029,-12.453 -33.422,-28.762c-0.393,-16.31 13.945,-29.904 31.998,-30.339Z" style="fill:#286b6c;"/><path d="M2796.97,523.23l2.696,251.4c0.578,58.246 41.79,81.492 114.614,77.508" style="fill:none;stroke:#286b6c;stroke-width:41.67px;"/><path d="M2802.51,620.38l111.773,-0" style="fill:none;stroke:#286b6c;stroke-width:41.67px;"/><path d="M1801.74,833.46c-9.175,3.753 -34.769,18.678 -94.997,18.678c-67.301,0 -121.94,-53.024 -121.94,-118.336c-0,-65.311 54.639,-118.336 121.94,-118.336c67.3,0 119.468,48.899 119.468,114.21c-0,6.863 -225.138,-2.418 -226.296,4.126" style="fill:none;stroke:#286b6c;stroke-width:41.67px;"/><path d="M2033.95,619.378c-74.858,-1.654 -110.865,26.721 -109.07,84.313l-0.472,157.795" style="fill:none;stroke:#286b6c;stroke-width:41.67px;"/><path d="M2209.79,616.349c64.531,-0 116.923,52.827 116.923,117.895c-0,65.068 -52.392,117.894 -116.923,117.894c-64.532,0 -116.923,-52.826 -116.923,-117.894c0,-65.068 52.391,-117.895 116.923,-117.895Zm116.922,117.453l4.362,127.684" style="fill:none;stroke:#286b6c;stroke-width:41.67px;"/><path d="M1172.84,619.657l-108.748,-0.768" style="fill:none;stroke:#286b6c;stroke-width:41.67px;"/></g><g transform="matrix(228.341,0,0,228.341,2553.99,1132.66)"></g><text x="1057.79px" y="1132.66px" style="font-family:'ChalkboardSE-Light', 'Chalkboard SE', cursive;font-size:228.341px;fill:#286b6c;">Ph<tspan x="1314.38px 1436.76px " y="1132.66px 1132.66px ">ys</tspan>io<tspan x="1695.12px 1799.58px 1923.72px 2048.86px 2133.64px 2256.26px 2376.87px " y="1132.66px 1132.66px 1132.66px 1132.66px 1132.66px 1132.66px 1132.66px ">therapi</tspan>e</text><g id="symbol"><path d="M1064.09,382.802c-169.352,74.182 -275.02,169.426 -282.116,297.271c0.711,21.844 0.131,50.334 16.895,74.087c38.044,53.903 95.568,112.537 96.71,180.904c1.179,70.573 -46.68,173.289 -89.634,242.531c32.119,-76.895 64.47,-185.827 44.914,-251.497c-16.524,-55.491 -56.92,-86.363 -104.702,-155.254c-23.815,-34.337 -28.133,-70.564 -27.306,-98.545c6.315,-145.154 116.285,-243.939 345.239,-289.497Z" style="fill:#d97b2f;stroke:#d97b2f;stroke-width:4.17px;"/><path d="M711.789,799.642c106.655,228.37 -34.189,412.833 -233.047,587.004c162.726,-172.381 267.235,-360.704 233.047,-587.004Z" style="fill:#3983b2;stroke:#3983b2;stroke-width:4.17px;"/><path d="M505.139,335.194c-62.115,104.893 -11.205,211.893 117,189.01c-86.496,-33.677 -124.487,-97.304 -117,-189.01Z" style="fill:#388b5f;stroke:#388b5f;stroke-width:4.17px;"/><path d="M640.885,527.325c141.697,-74.007 134.607,-218.937 -32.255,-247.304c98.722,46.689 112.844,148.391 32.255,247.304Z" style="fill:#dfad3f;stroke:#dfad3f;stroke-width:4.17px;"/><path d="M210.718,748.351c229.239,-151.353 512.065,-46.457 302.686,323.354c107.574,-316.715 4.167,-421.981 -302.686,-323.354Z" style="fill:#348e61;stroke:#348e61;stroke-width:4.17px;"/><path d="M240.205,681.525c398.764,-333.679 702.163,192.597 106.096,685.755c205.304,-214.815 289.384,-418.76 279.338,-554.277c-14.441,-194.792 -144.609,-259.547 -385.434,-131.478Z" style="fill:#2f6661;stroke:#2f6661;stroke-width:4.17px;"/></g></g></svg>